<svg width="254" height="310" viewBox="0 0 254 310" fill="none" xmlns="http://www.w3.org/2000/svg">
<rect x="156.386" y="9.13658" width="85.836" height="115.232" rx="4" transform="rotate(-6.11027 156.386 9.13658)" fill="#EDEDED"/>
<rect x="172.293" y="25.172" width="57.6159" height="6.40177" rx="2" transform="rotate(-6.11027 172.293 25.172)" fill="#62B8CF"/>
<rect x="173.827" y="39.4942" width="57.0878" height="6.40177" rx="2" transform="rotate(-6.11027 173.827 39.4942)" fill="#62B8CF"/>
<rect x="176.552" y="64.9558" width="25.6071" height="6.40177" rx="2" transform="rotate(-6.11027 176.552 64.9558)" fill="#62B8CF"/>
<rect x="208.379" y="61.5487" width="25.6071" height="6.40177" rx="2" transform="rotate(-6.11027 208.379 61.5487)" fill="#62B8CF"/>
<rect x="178.085" y="79.278" width="57.6159" height="6.40177" rx="2" transform="rotate(-6.11027 178.085 79.278)" fill="#62B8CF"/>
<g clip-path="url(#clip0)">
<path fill-rule="evenodd" clip-rule="evenodd" d="M115.743 66.2325C112.849 62.8406 110.89 58.6838 111.217 54.026C112.16 40.6055 130.873 43.5578 134.513 50.3313C138.153 57.1049 137.72 74.2864 133.016 75.4971C131.14 75.9799 127.143 74.7972 123.075 72.3495L125.629 90.3825H110.553L115.743 66.2325Z" fill="#915B3C"/>
<path fill-rule="evenodd" clip-rule="evenodd" d="M128.558 42.954C126.498 42.3269 123.508 42.1142 122.25 42.2581C122.966 40.5465 123.25 38.6395 123.018 36.7827C122.793 34.9785 121.986 33.4422 121.239 31.8324C120.895 31.0904 120.504 30.3525 119.923 29.7849C119.33 29.2067 118.58 28.825 117.794 28.6429C116.989 28.4566 116.147 28.4721 115.341 28.6412C114.984 28.716 114.664 28.8788 114.315 28.9693C113.957 29.062 113.783 28.8382 113.523 28.6133C112.896 28.0714 111.978 27.8039 111.185 27.7081C110.296 27.6007 109.374 27.7347 108.525 28.0265C107.7 28.3106 106.907 28.7719 106.31 29.444C106.044 29.7432 105.803 30.0837 105.647 30.4597C105.582 30.614 105.572 30.7054 105.417 30.7619C105.275 30.8142 105.108 30.8157 104.961 30.8655C103.537 31.3468 102.321 32.4447 101.658 33.8543C101.271 34.6767 101.088 36.1246 101.138 37.7475C101.189 39.3704 102.656 43.605 104.029 45.1496C105.255 46.5283 107.056 47.4381 108.794 47.8363C107.64 49.1529 106.872 50.7982 106.304 52.4715C105.687 54.2891 105.306 56.1777 105.165 58.102C105.031 59.9303 105.018 61.8637 105.448 63.6529C105.849 65.3262 106.708 66.6988 108.142 67.5696C108.799 67.9685 109.505 68.2682 110.216 68.5421C110.916 68.812 111.619 69.0744 112.353 69.2259C113.741 69.5124 115.341 69.4632 116.411 68.3598C116.796 67.962 117.22 67.4621 117.502 66.9761C117.603 66.8014 117.664 66.6871 117.541 66.5163C117.394 66.3117 117.156 66.1549 116.967 65.9949C115.888 65.0824 115.221 63.8641 115.053 62.4164C114.882 60.9475 115.277 59.0516 116.708 58.4105C118.473 57.6192 120.418 58.5275 121.988 59.3742C122.655 57.0239 124.024 54.9077 126.171 53.8296C128.547 52.637 131.273 52.4974 133.714 51.4741C134.35 51.2074 134.998 50.9047 135.466 50.3613C135.662 50.1343 135.892 49.8397 135.97 49.5394C136.072 49.1449 135.818 48.8141 135.621 48.5065C134.577 46.8758 130.618 43.5811 128.558 42.954Z" fill="#191847"/>
<path fill-rule="evenodd" clip-rule="evenodd" d="M106.785 142.433L153.46 220.337L188.453 286.199H195.99L137.359 142.433L106.785 142.433Z" fill="#784931"/>
<path fill-rule="evenodd" clip-rule="evenodd" d="M183.844 283.158C183.141 285.031 182.79 286.432 182.79 287.362C182.79 288.493 182.979 290.143 183.356 292.313C184.67 292.313 196.48 292.313 218.785 292.313C219.705 289.274 219.174 287.634 217.19 287.391C215.207 287.149 213.559 286.93 212.247 286.735L195.78 279.406C195.463 279.265 195.092 279.407 194.951 279.723C194.948 279.729 194.946 279.734 194.944 279.74L193.885 282.303C192.049 283.159 190.557 283.586 189.409 283.586C188.476 283.586 187.188 283.21 185.544 282.458L185.544 282.458C184.913 282.169 184.168 282.446 183.879 283.075C183.866 283.103 183.855 283.13 183.844 283.158Z" fill="#E4E4E4"/>
<path fill-rule="evenodd" clip-rule="evenodd" d="M178.734 275.652L193.269 271.262C186.901 252.256 179.096 231.34 169.854 208.514C160.612 185.689 150.686 163.662 140.076 142.433H99.0234C110.819 169.286 123.323 193.686 136.537 215.633C149.751 237.579 163.817 257.585 178.734 275.652Z" fill="#4C9AAE"/>
<path fill-rule="evenodd" clip-rule="evenodd" d="M103.717 142.433C99.3118 169.809 90.8152 204.785 90.0134 205.864C89.4788 206.584 70.2345 213.022 32.2803 225.178L33.9084 231.814C79.1687 225.294 103.017 220.236 105.453 216.639C109.108 211.244 127.355 168.623 134.423 142.433H103.717Z" fill="#915B3C"/>
<path fill-rule="evenodd" clip-rule="evenodd" d="M45.6221 219.443L48.4898 230.129C82.3419 233.094 103.084 230.952 110.715 223.704C118.347 216.456 127.045 189.366 136.809 142.433H97.6629C91.4766 180.865 88.018 200.887 87.2872 202.501C86.5565 204.114 72.6681 209.761 45.6221 219.443Z" fill="#62B8CF"/>
<path fill-rule="evenodd" clip-rule="evenodd" d="M34.1349 222.413C32.1662 222.047 30.7235 221.944 29.8068 222.106C28.6919 222.302 27.0977 222.773 25.0243 223.521C25.2527 224.813 27.3055 236.425 31.1827 258.357C34.3387 258.735 35.8637 257.928 35.7578 255.936C35.6518 253.943 35.5811 252.285 35.5455 250.961L39.9089 233.499C39.9928 233.163 39.7882 232.822 39.4517 232.738C39.446 232.737 39.4402 232.735 39.4344 232.734L36.7231 232.138C35.5606 230.481 34.8796 229.088 34.68 227.959C34.5179 227.042 34.6648 225.71 35.1207 223.963L35.1207 223.963C35.2956 223.293 34.8935 222.608 34.2224 222.433C34.1934 222.425 34.1643 222.419 34.1349 222.413Z" fill="#E4E4E4"/>
<path fill-rule="evenodd" clip-rule="evenodd" d="M138.592 103.364L160.395 91.4423C164.021 87.1438 167.593 83.8055 171.112 81.4273C172.187 80.9791 174.067 80.7079 172.309 83.8239C170.55 86.9399 168.841 90.2965 169.737 91.2565C170.633 92.2165 172.867 90.8754 173.936 92.4704C174.648 93.5338 170.832 95.2136 162.486 97.5098L146.644 111.991L138.592 103.364ZM172.739 113.423L182.316 108.17C183.66 103.065 185.267 100.497 187.135 100.465C188.571 99.7979 186.071 106.248 188.792 105.689C191.514 105.13 198.157 100.197 199.301 101.199C200.995 102.68 199.485 107.23 197.706 109.493C194.381 113.722 191.628 115.169 184.824 117.063C181.266 118.053 177.42 120.038 173.285 123.018L172.739 113.423Z" fill="#915B3C"/>
<path fill-rule="evenodd" clip-rule="evenodd" d="M127.974 100.708C135.611 100.628 145.795 99.0173 156.661 92.1314L160.928 101.632C153.433 109.058 142.894 115.16 133.679 114.901C126.417 114.698 122.706 105.928 127.974 100.708Z" fill="#2026A2"/>
<path fill-rule="evenodd" clip-rule="evenodd" d="M138.257 115.944C146.364 117.963 159.96 115.583 179.044 108.803C183.777 118.58 185.965 125.55 185.608 129.713C169.237 138.251 155.206 142.057 143.646 142.308C144.013 149.156 143.178 155.672 140.374 161.626C134.608 173.866 100.845 162.531 89.4934 164.762C82.3845 141.713 96.1298 132.345 96.1409 117.597C96.153 101.446 109.143 76.5861 111.054 76.5861L128.483 76.5861C129.445 88.9208 134.285 102.515 138.257 115.944Z" fill="#1F28CF"/>
<circle opacity="0.05" cx="189.897" cy="205.183" r="69.9622" fill="#51F6B2"/>
</g>
<defs>
<clipPath id="clip0">
<rect width="238.695" height="301.014" fill="white" transform="translate(0 8.23083)"/>
</clipPath>
</defs>
</svg>
